<svg width="49" height="55" viewBox="0 0 49 55" fill="none" xmlns="http://www.w3.org/2000/svg">
<path d="M49 15.2778H40.3944C39.0163 12.8944 37.1175 10.8472 34.8206 9.28889L39.8125 4.30833L35.4944 0L28.8488 6.63056C27.44 6.29444 26.0006 6.11111 24.5 6.11111C22.9994 6.11111 21.56 6.29444 20.1819 6.63056L13.5056 0L9.1875 4.30833L14.1487 9.28889C11.8825 10.8472 9.98375 12.8944 8.60563 15.2778H0V21.3889H6.40063C6.2475 22.3972 6.125 23.4056 6.125 24.4444V27.5H0V33.6111H6.125V36.6667C6.125 37.7056 6.2475 38.7139 6.40063 39.7222H0V45.8333H8.60563C11.7906 51.3028 17.7013 55 24.5 55C31.2987 55 37.2094 51.3028 40.3944 45.8333H49V39.7222H42.5994C42.7525 38.7139 42.875 37.7056 42.875 36.6667V33.6111H49V27.5H42.875V24.4444C42.875 23.4056 42.7525 22.3972 42.5994 21.3889H49V15.2778ZM30.625 39.7222H18.375V33.6111H30.625V39.7222ZM30.625 27.5H18.375V21.3889H30.625V27.5Z" fill="#6224E7"/>
</svg>
