<svg width="45" height="41" viewBox="0 0 45 41" fill="none" xmlns="http://www.w3.org/2000/svg">
<path fill-rule="evenodd" clip-rule="evenodd" d="M36.9811 35.0175C33.109 38.5669 27.833 40.7512 22.0184 40.7512C10.1354 40.7512 0.50238 31.6287 0.50238 20.3756C0.50238 9.12247 10.1354 0 22.0184 0C33.9013 0 43.5344 9.12247 43.5344 20.3756C43.5344 25.2131 41.7542 29.6569 38.7804 33.1514L44.8584 38.5657L42.9573 40.3332L36.9811 35.0175ZM35.8766 30.5647C38.1866 27.7512 39.5622 24.2155 39.5622 20.3756C39.5622 15.1936 37.0569 10.5657 33.1309 7.51886C33.2603 8.04633 33.3251 8.61123 33.3251 9.21358C33.3251 10.5348 32.9449 11.7667 32.1844 12.9094C31.4662 14.0163 30.2411 15.1411 28.509 16.2838C27.1285 17.166 25.3454 18.1504 23.1599 19.2367L35.8766 30.5647ZM34.0818 32.4386L20.6286 20.4722C18.2089 21.6779 16.273 22.7813 14.821 23.7825C13.2157 24.8895 12.075 25.9786 11.399 27.0498C10.7653 28.0853 10.4485 29.228 10.4485 30.4778C10.4485 31.6024 10.7352 32.6217 11.3086 33.5357C14.2715 35.7013 17.9861 36.9896 22.0184 36.9896C26.6913 36.9896 30.9376 35.2594 34.0818 32.4386ZM7.41554 29.5867C7.56395 28.4734 7.94123 27.4314 8.5474 26.4606C9.35009 25.1394 10.6597 23.8361 12.4763 22.5506C14.119 21.3831 16.24 20.1598 18.8393 18.8807L18.75 18.8012C17.2713 17.48 16.1096 16.3195 15.2646 15.3197C14.4197 14.3198 13.8282 13.3914 13.4903 12.5344C13.1945 11.6417 13.0467 10.7133 13.0467 9.7492C13.0467 8.21375 13.4691 6.8747 14.3141 5.73204C14.4373 5.57331 14.5671 5.4194 14.7034 5.27031C8.66655 7.89637 4.47456 13.6724 4.47456 20.3756C4.47456 23.7828 5.55764 26.9505 7.41554 29.5867ZM21.3676 17.6402C23.3832 16.6245 25.0244 15.726 26.291 14.9447C27.8541 13.9806 28.9526 13.0522 29.5863 12.1595C30.22 11.2668 30.5368 10.3027 30.5368 9.26714C30.5368 7.73169 29.9242 6.49976 28.6991 5.57135C27.5162 4.64294 25.8052 4.17873 23.5661 4.17873C21.2003 4.17873 19.3414 4.6965 17.9895 5.73204C16.6799 6.73187 16.0251 8.07092 16.0251 9.7492C16.0251 10.5348 16.1729 11.2847 16.4687 11.9988C16.7644 12.713 17.2925 13.5164 18.0529 14.4091C18.8556 15.2661 19.954 16.3374 21.3481 17.6229L21.3676 17.6402Z" fill="#6224E7"/>
</svg>
